<svg xmlns="http://www.w3.org/2000/svg" xmlns:xlink="http://www.w3.org/1999/xlink" width="250" zoomAndPan="magnify" viewBox="0 0 187.5 187.499992" height="250" preserveAspectRatio="xMidYMid meet" version="1.0"><defs><clipPath id="93973f4bcc"><path d="M 35.605469 0 L 123 0 L 123 170 L 35.605469 170 Z M 35.605469 0 " clip-rule="nonzero"/></clipPath><clipPath id="fdd90f6bc9"><path d="M 63 15 L 151.546875 15 L 151.546875 187 L 63 187 Z M 63 15 " clip-rule="nonzero"/></clipPath></defs><g clip-path="url(#93973f4bcc)"><path fill="#5e17eb" d="M 122.460938 8.753906 L 106.363281 0 L 106.363281 67.695312 C 103.976562 66.363281 101.488281 64.996094 99.128906 63.722656 C 97.917969 63.046875 96.644531 62.523438 95.308594 62.148438 C 93.972656 61.777344 92.613281 61.566406 91.226562 61.515625 C 89.839844 61.46875 88.464844 61.582031 87.105469 61.863281 C 85.746094 62.140625 84.441406 62.574219 83.183594 63.167969 L 44.457031 84.925781 C 44.457031 84.925781 35.746094 89.375 35.636719 101.453125 C 35.550781 112.074219 35.679688 141.703125 35.636719 146.113281 C 35.597656 150.523438 37.007812 156.039062 44.335938 160.351562 C 51.660156 164.664062 58.75 169.183594 58.75 169.183594 C 58.75 169.183594 59.078125 169.132812 58.808594 168.839844 C 58.089844 168.085938 51.644531 163.355469 51.605469 156.601562 C 51.605469 151.945312 51.605469 109.625 51.605469 109.625 C 51.605469 109.625 52.628906 99.011719 60.898438 94.277344 C 69.546875 89.296875 95.175781 74.792969 100.992188 72.414062 C 106.109375 69.800781 111.664062 71.25 115.316406 72.839844 L 122.480469 76.753906 Z M 122.460938 8.753906 " fill-opacity="1" fill-rule="nonzero"/></g><g clip-path="url(#fdd90f6bc9)"><path fill="#8c52ff" d="M 151.347656 104.546875 L 151.347656 37.601562 C 151.445312 26.609375 148.753906 23.578125 141.960938 19.34375 L 135.367188 15.890625 L 135.367188 84.65625 C 133.582031 83.527344 131.273438 82.167969 128.386719 80.601562 C 127.175781 79.929688 125.898438 79.410156 124.5625 79.042969 C 123.226562 78.671875 121.867188 78.460938 120.480469 78.414062 C 119.097656 78.367188 117.726562 78.480469 116.367188 78.753906 C 115.007812 79.03125 113.699219 79.460938 112.441406 80.042969 L 72.953125 102.183594 C 72.953125 102.183594 63.960938 106.621094 63.855469 118.6875 C 63.765625 129.308594 63.894531 157.636719 63.855469 162.046875 C 63.820312 166.457031 65.492188 172.160156 72.824219 176.46875 C 78.390625 179.742188 81.011719 181.167969 81.910156 181.671875 C 83.507812 182.691406 85.390625 183.828125 87.601562 185.019531 C 93.355469 188.125 100.421875 186.953125 103.546875 185.578125 C 112.609375 181.59375 142.269531 163.804688 142.269531 163.804688 C 142.269531 163.804688 151.246094 159.375 151.347656 147.292969 C 151.441406 136.855469 151.316406 109.625 151.347656 104.546875 Z M 89.386719 111.527344 C 93.027344 109.394531 99.71875 105.570312 106.675781 101.699219 C 106.675781 111.929688 106.722656 121.296875 106.722656 121.296875 C 106.679688 122.875 106.429688 124.421875 105.980469 125.9375 C 105.53125 127.449219 104.894531 128.878906 104.066406 130.226562 C 103.242188 131.574219 102.257812 132.792969 101.113281 133.878906 C 99.96875 134.96875 98.703125 135.890625 97.316406 136.644531 C 93.601562 138.691406 86.867188 142.550781 79.894531 146.472656 C 79.894531 136.441406 79.863281 126.875 79.863281 126.875 C 79.863281 126.875 79.171875 117.492188 89.386719 111.527344 Z M 135.367188 139.152344 C 135.359375 140.746094 135.136719 142.308594 134.695312 143.839844 C 134.253906 145.371094 133.617188 146.816406 132.777344 148.167969 C 131.9375 149.523438 130.929688 150.738281 129.75 151.8125 C 128.574219 152.890625 127.273438 153.785156 125.851562 154.5 C 117 159.105469 91.574219 173.980469 85.757812 176.359375 C 85.195312 176.609375 84.65625 176.832031 84.144531 177.015625 C 80.980469 177.726562 79.78125 175.296875 79.890625 168.671875 C 79.890625 168.019531 79.890625 166.730469 79.890625 164.996094 L 113.757812 145.957031 C 113.757812 145.957031 122.289062 141.519531 122.394531 129.4375 C 122.464844 121.363281 122.394531 103.273438 122.394531 93.113281 C 125.554688 91.457031 128.089844 90.191406 129.488281 89.625 C 130 89.390625 130.511719 89.179688 131.023438 88.992188 C 134.261719 88.207031 135.484375 90.621094 135.371094 97.316406 C 135.257812 101.984375 135.367188 139.152344 135.367188 139.152344 Z M 135.367188 139.152344 " fill-opacity="1" fill-rule="nonzero"/></g></svg>